<?xml version="1.0" encoding="UTF-8" standalone="no"?>
<svg
   xmlns:dc="http://purl.org/dc/elements/1.1/"
   xmlns:cc="http://creativecommons.org/ns#"
   xmlns:rdf="http://www.w3.org/1999/02/22-rdf-syntax-ns#"
   xmlns:svg="http://www.w3.org/2000/svg"
   xmlns="http://www.w3.org/2000/svg"
   xmlns:sodipodi="http://sodipodi.sourceforge.net/DTD/sodipodi-0.dtd"
   xmlns:inkscape="http://www.inkscape.org/namespaces/inkscape"
   viewBox="0 0 19 16.299999"
   width="19"
   height="16.299999"
   version="1.1"
   id="svg3"
>

  <path
     id="svg-camera"
     d="M 17.4,16.3 H 1.6 C 0.7,16.3 0,15.6 0,14.7 V 3.7 C 0,3.4 0.2,3 0.4,2.8 L 2.6,0.4 C 2.8,0.2 3.2,0 3.5,0 H 6.1 C 6.4,0 6.8,0.2 7,0.4 l 1.4,1.5 h 9 c 0.9,0 1.6,0.7 1.6,1.6 v 11.2 c 0,0.9 -0.7,1.6 -1.6,1.6 z M 9.5,4.4 c -2.6,0 -4.7,2.1 -4.7,4.7 0,2.6 2.1,4.7 4.7,4.7 2.6,0 4.7,-2.1 4.7,-4.7 0,-2.6 -2.1,-4.7 -4.7,-4.7 z m 0,8 c -1.8,0 -3.3,-1.5 -3.3,-3.3 0,-1.8 1.5,-3.3 3.3,-3.3 1.8,0 3.3,1.5 3.3,3.3 0,1.8 -1.5,3.3 -3.3,3.3 z"
     inkscape:connector-curvature="0" />
</svg>
