<svg
  xmlns="http://www.w3.org/2000/svg" viewBox="0 0 24 24">
  <path style="fill:#ffffff" d="M 12 2 C 6.488281 2 2 6.488281 2 12 C 2 17.511719 6.488281 22 12 22 C 17.511719 22 22 17.511719 22 12 C 22 9.511719 21.070313 7.25 19.5625 5.5 L 22.0625 3 L 16 3 L 16 9.0625 L 18.15625 6.90625 C 19.304688 8.285156 20 10.054688 20 12 C 20 16.429688 16.429688 20 12 20 C 7.570313 20 4 16.429688 4 12 C 4 7.570313 7.570313 4 12 4 Z M 12 6 C 10.34375 6 9 7.34375 9 9 C 9 10.65625 10.34375 12 12 12 C 13.65625 12 15 10.65625 15 9 C 15 7.34375 13.65625 6 12 6 Z M 12 14 C 9.378906 14 7.785156 15.09375 6.90625 16.03125 C 8.097656 17.527344 9.941406 18.5 12 18.5 C 14.058594 18.5 15.902344 17.527344 17.09375 16.03125 C 16.214844 15.09375 14.621094 14 12 14 Z"></path>
</svg>